<?xml version="1.0" encoding="iso-8859-1"?>
<!-- Generator: Adobe Illustrator 19.0.0, SVG Export Plug-In . SVG Version: 6.00 Build 0)  -->
<svg version="1.1" id="Capa_1" xmlns="http://www.w3.org/2000/svg" xmlns:xlink="http://www.w3.org/1999/xlink" x="0px" y="0px"
	 viewBox="0 0 448 448" style="enable-background:new 0 0 448 448;" xml:space="preserve">
<path style="fill:#FFC107;" d="M224,106.667c-94.261,0-170.667,76.405-170.667,170.667S129.739,448,224,448
	s170.667-76.405,170.667-170.667S318.261,106.667,224,106.667z M224,405.333c-70.688,0-128-57.312-128-128s57.312-128,128-128
	s128,57.312,128,128S294.688,405.333,224,405.333z"/>
<path style="fill:#FFA038;" d="M213.333,149.867c-3.531-0.288-7.061-0.533-10.667-0.533c-70.688,0-128,57.312-128,128
	s57.312,128,128,128c3.605,0,7.136-0.245,10.667-0.533C147.648,399.36,96,344.427,96,277.333S147.648,155.307,213.333,149.867z"/>
<path style="fill:#FF8906;" d="M224,106.667c-3.605,0-7.125,0.32-10.667,0.533c89.259,5.536,160,79.477,160,170.133
	s-70.741,164.597-160,170.133C216.875,447.68,220.395,448,224,448c94.261,0,170.667-76.405,170.667-170.667
	S318.261,106.667,224,106.667z"/>
<polygon style="fill:#F44336;" points="309.333,59.733 271.403,0 176.597,0 138.667,59.733 138.667,60.448 224,74.667 
	309.333,60.448 "/>
<polygon style="fill:#D32F2F;" points="202.667,149.333 245.333,149.333 309.333,60.448 224,53.333 138.667,60.448 "/>
<polygon style="fill:#FA752B;" points="181.333,0 224,74.667 266.667,0 "/>
<polygon style="fill:#EA4528;" points="256,64 224,149.333 192,64 224,74.667 "/>
<polygon style="fill:#F44336;" points="176.597,0 138.667,59.733 224,74.667 309.333,59.733 271.403,0 "/>
<polygon style="fill:#FA752B;" points="181.333,0 224,74.667 266.667,0 "/>
<g>
</g>
<g>
</g>
<g>
</g>
<g>
</g>
<g>
</g>
<g>
</g>
<g>
</g>
<g>
</g>
<g>
</g>
<g>
</g>
<g>
</g>
<g>
</g>
<g>
</g>
<g>
</g>
<g>
</g>
</svg>
